<?xml version="1.0" encoding="UTF-8" standalone="no"?>
<!-- Created with Inkscape (http://www.inkscape.org/) -->

<svg
   xmlns:dc="http://purl.org/dc/elements/1.1/"
   xmlns:cc="http://creativecommons.org/ns#"
   xmlns:rdf="http://www.w3.org/1999/02/22-rdf-syntax-ns#"
   xmlns:svg="http://www.w3.org/2000/svg"
   xmlns="http://www.w3.org/2000/svg"
   xmlns:xlink="http://www.w3.org/1999/xlink"
   xmlns:sodipodi="http://sodipodi.sourceforge.net/DTD/sodipodi-0.dtd"
   xmlns:inkscape="http://www.inkscape.org/namespaces/inkscape"
   id="svg2"
   version="1.1"
   inkscape:version="0.48.3.1 r9886"
   width="1319.0752"
   height="659.82599"
   xml:space="preserve"
   sodipodi:docname="aircraft static longitudinal stability.svg"><metadata
     id="metadata8"><rdf:RDF><cc:Work
         rdf:about=""><dc:format>image/svg+xml</dc:format><dc:type
           rdf:resource="http://purl.org/dc/dcmitype/StillImage" /><dc:title /></cc:Work></rdf:RDF></metadata><defs
     id="defs6"><marker
       inkscape:stockid="Arrow2Mend"
       orient="auto"
       refY="0"
       refX="0"
       id="Arrow2Mend"
       style="overflow:visible"><path
         id="path4073"
         style="font-size:12px;fill-rule:evenodd;stroke-width:0.625;stroke-linejoin:round"
         d="M 8.7185878,4.0337352 -2.2072895,0.01601326 8.7185884,-4.0017078 c -1.7454984,2.3720609 -1.7354408,5.6174519 -6e-7,8.035443 z"
         transform="scale(-0.6,-0.6)"
         inkscape:connector-curvature="0" /></marker><marker
       inkscape:stockid="Arrow2Mend"
       orient="auto"
       refY="0"
       refX="0"
       id="Arrow2Mend-7"
       style="overflow:visible"><path
         inkscape:connector-curvature="0"
         id="path4073-3"
         style="font-size:12px;fill-rule:evenodd;stroke-width:0.625;stroke-linejoin:round"
         d="M 8.7185878,4.0337352 -2.2072895,0.01601326 8.7185884,-4.0017078 c -1.7454984,2.3720609 -1.7354408,5.6174519 -6e-7,8.035443 z"
         transform="scale(-0.6,-0.6)" /></marker></defs><sodipodi:namedview
     pagecolor="#ffffff"
     bordercolor="#666666"
     borderopacity="1"
     objecttolerance="10"
     gridtolerance="10"
     guidetolerance="10"
     inkscape:pageopacity="0"
     inkscape:pageshadow="2"
     inkscape:window-width="1600"
     inkscape:window-height="876"
     id="namedview4"
     showgrid="false"
     inkscape:zoom="0.43927602"
     inkscape:cx="1439.2105"
     inkscape:cy="175.9328"
     inkscape:window-x="1280"
     inkscape:window-y="24"
     inkscape:window-maximized="1"
     inkscape:current-layer="g10"
     fit-margin-top="20"
     fit-margin-left="20"
     fit-margin-right="20"
     fit-margin-bottom="20"
     inkscape:showpageshadow="false"
     inkscape:snap-bbox="true"
     inkscape:snap-bbox-midpoints="true"
     inkscape:object-nodes="true"
     inkscape:snap-object-midpoints="true"
     showguides="true"
     inkscape:guide-bbox="true" /><g
     id="g10"
     inkscape:groupmode="layer"
     inkscape:label="Airbus-AC-A380-20111101"
     transform="matrix(1.25,0,0,-1.25,372.24965,1823.5173)"><path
   style="fill:none;stroke:#000000;stroke-width:2.4000001;stroke-linecap:butt;stroke-linejoin:miter;stroke-miterlimit:4;stroke-opacity:1;stroke-dasharray:none"
   d="m 48.248095,1353.8233 c 59.860585,0 90.917885,-6.4918 152.860485,-49.7952 l 56.06967,-39.1978"
   id="path3273"
   inkscape:connector-curvature="0"
   sodipodi:nodetypes="csc"
   inkscape:export-filename="/home/olivier/aero/documents/cc/figures/flight_mechanics/path5631.png"
   inkscape:export-xdpi="113.61"
   inkscape:export-ydpi="113.61" /><path
   style="fill:none;stroke:#2d1dae;stroke-width:2.4000001;stroke-linecap:butt;stroke-linejoin:miter;stroke-miterlimit:4;stroke-opacity:1;stroke-dasharray:14.4, 2.4;stroke-dashoffset:0;marker-end:url(#Arrow2Mend)"
   d="m 257.17825,1264.8303 c 73.85352,-46.2961 202.32416,-71.3185 284.09392,-69.2189"
   id="path4487"
   inkscape:connector-curvature="0"
   sodipodi:nodetypes="cc"
   inkscape:export-filename="/home/olivier/aero/documents/cc/figures/flight_mechanics/path5631.png"
   inkscape:export-xdpi="113.61"
   inkscape:export-ydpi="113.61" /><path
   style="fill:none;stroke:#ae1d61;stroke-width:2.4000001;stroke-linecap:butt;stroke-linejoin:miter;stroke-miterlimit:4;stroke-opacity:1;stroke-dasharray:14.4, 2.4;stroke-dashoffset:0;marker-end:url(#Arrow2Mend)"
   d="M 257.17825,1264.8303 C 464.4453,1129.8077 517.13257,997.27228 522.78171,985.24349"
   id="path4487-0"
   inkscape:connector-curvature="0"
   sodipodi:nodetypes="cc"
   inkscape:export-filename="/home/olivier/aero/documents/cc/figures/flight_mechanics/path5631.png"
   inkscape:export-xdpi="113.61"
   inkscape:export-ydpi="113.61" /><path
   style="fill:none;stroke:#0062f0;stroke-width:2.4000001;stroke-linecap:butt;stroke-linejoin:miter;stroke-miterlimit:4;stroke-opacity:1;stroke-dasharray:14.4, 2.4;stroke-dashoffset:0;marker-end:url(#Arrow2Mend-7)"
   d="m 257.17825,1264.8303 c 95.8927,-55.3637 276.38792,-159.6771 287.6781,-166.091"
   id="path4883"
   inkscape:connector-curvature="0"
   inkscape:export-filename="/home/olivier/aero/documents/cc/figures/flight_mechanics/path5631.png"
   inkscape:export-xdpi="113.61"
   inkscape:export-ydpi="113.61"
   sodipodi:nodetypes="cc" /><g
   id="g5110"
   transform="matrix(0.42572164,0,0,-0.42572164,-303.51152,1450.3961)"
   inkscape:export-filename="/home/olivier/aero/documents/cc/figures/flight_mechanics/path5631.png"
   inkscape:export-xdpi="113.61"
   inkscape:export-ydpi="113.61"><g
     transform="translate(-1000.874,-12.59375)"
     id="layer1"
     inkscape:label="Ebene 1" /><g
     transform="translate(-1000.874,-12.59375)"
     inkscape:label="Draufsicht"
     id="layer2"><g
       id="g3859"><rect
         y="835.24896"
         x="1295.2847"
         height="33.035713"
         width="10.178572"
         id="rect3857"
         style="fill:#f8f8f8;fill-opacity:1;fill-rule:nonzero;stroke:#000000;stroke-width:1;stroke-linecap:round;stroke-linejoin:round;stroke-miterlimit:4;stroke-opacity:1;stroke-dasharray:none;stroke-dashoffset:0"
         transform="matrix(0.92286357,-0.38512703,0.38512703,0.92286357,0,0)"
         inkscape:transform-center-x="5.7142857"
         inkscape:transform-center-y="-15.357143" /><use
         x="0"
         y="0"
         xlink:href="#path3851"
         id="use3855"
         transform="translate(143.75,0)"
         width="831.03223"
         height="374.53665" /><rect
         style="fill:#f8f8f8;fill-opacity:1;fill-rule:nonzero;stroke:#000000;stroke-width:1;stroke-linecap:round;stroke-linejoin:round;stroke-miterlimit:4;stroke-opacity:1;stroke-dasharray:none;stroke-dashoffset:0"
         id="rect3853"
         width="10.178572"
         height="33.035713"
         x="668.92859"
         y="258.28665"
         transform="translate(1000.874,12.59375)" /><path
         sodipodi:type="arc"
         style="fill:#ffffff;fill-opacity:1;fill-rule:nonzero;stroke:#000000;stroke-width:0.81953311;stroke-linecap:round;stroke-linejoin:round;stroke-miterlimit:4;stroke-opacity:1;stroke-dasharray:none;stroke-dashoffset:0"
         id="path3851"
         sodipodi:cx="533.23425"
         sodipodi:cy="310.01315"
         sodipodi:rx="13.763329"
         sodipodi:ry="13.763329"
         d="m 546.99758,310.01315 c 0,7.60128 -6.16205,13.76333 -13.76333,13.76333 -7.60127,0 -13.76333,-6.16205 -13.76333,-13.76333 0,-7.60127 6.16206,-13.76333 13.76333,-13.76333 7.60128,0 13.76333,6.16206 13.76333,13.76333 z"
         transform="matrix(1.2202742,0,0,1.2201397,887.40493,-59.44053)" /><path
         style="fill:#ffffff;fill-opacity:1;stroke:#000000;stroke-width:1;stroke-linecap:butt;stroke-linejoin:miter;stroke-miterlimit:4;stroke-opacity:1;stroke-dasharray:none"
         d="m 1748.7803,223.40625 c 0,0 31.2723,-3.3929 31.0937,-13.75 -0.157,-9.1076 -31.4375,-10.15625 -31.4375,-10.15625 z"
         id="path3849"
         inkscape:connector-curvature="0"
         sodipodi:nodetypes="cscc" /><path
         style="fill:#ffffff;fill-opacity:1;stroke:#000000;stroke-width:1;stroke-linecap:butt;stroke-linejoin:miter;stroke-miterlimit:4;stroke-opacity:1;stroke-dasharray:none"
         d="m 1748.4365,199.5 c 0.4825,-6.4654 -6.2208,-7.8074 -12.5,-8 -10.9078,-0.33472 -33.3963,-1.32389 -43.9375,-0.9375 -0.053,-1e-5 -0.1036,1e-5 -0.1562,0 -14.5174,-0.003 -28.8017,-0.0936 -35.7188,-2.6875 -9.6429,-17.14285 -28.9434,-28.99705 -39.8437,-31.59375 -6.7932,-10.9896 -12.198,-15.63545 -20.5313,-18.03125 -22.4405,-3.4673 -91.3995,-2.19545 -115.3437,5.34375 -13.6407,4.2949 -23.9327,4.52715 -30.7188,15.90625 -18.2146,8.7005 -21.4196,10.89295 -39.8125,25 -3.5714,0 -165.7366,-17.15625 -168.5937,-17.15625 -2.8572,0 -43.7321,-6.43305 -49.625,-9.46875 -5.8219,-2.9992 -17.9655,-16.1106 -28.2188,-27.6875 -3.3529,-3.7857 -55.9062,-66.0625 -55.9062,-66.0625 l -55.1563,1.625 38.2188,118.75 c -4.2107,9.1658 -3.7804,14.5236 -1.0938,21.9375 3.6905,5.0595 15.5998,5.67705 23.2188,7.34375 130.0596,27.0834 331.68,62.06105 407.1562,66.40625 52.6648,2.79851 106.2349,2.31502 146.9688,0.1875 19.8085,-1.31663 42.5205,-4.94979 58.1875,-14.8125 10.7868,-6.9894 17.0984,-22.92325 23.75,-42.15625 z"
         id="path7318"
         inkscape:connector-curvature="0"
         sodipodi:nodetypes="cccccccsccssscccccccccc" /><path
         style="fill:#ffffff;fill-opacity:1;stroke:#000000;stroke-width:1;stroke-linecap:round;stroke-linejoin:round;stroke-miterlimit:4;stroke-opacity:1;stroke-dasharray:none;stroke-dashoffset:80"
         d="m 1548.9242,289.49749 -56.1475,0.5357 c -3.9835,-0.1786 -10.561,7.5285 -9.7085,16.3516 0.8765,9.0709 8.0735,7.5051 12.9227,12.289 26.454,3.4524 42.9079,5.8333 64.0047,4.2857 10.7249,-6.1372 16.7269,-9.862 16.8513,-14.2533 -0.9233,-9.6244 -20.1892,-20.9944 -27.9227,-19.2087 z"
         id="path9100"
         sodipodi:nodetypes="cczcccc"
         inkscape:connector-curvature="0" /><path
         style="fill:#ffffff;fill-opacity:1;stroke:#000000;stroke-width:1;stroke-linecap:round;stroke-linejoin:round;stroke-miterlimit:4;stroke-opacity:1;stroke-dasharray:none;stroke-dashoffset:80"
         d="m 1691.5419,295.89479 -47.0829,0.4486 c -3.3403,-0.1496 -8.8559,6.3029 -8.1411,13.6897 0.735,7.5943 6.7701,6.2835 10.8365,10.2887 22.1831,2.8904 35.9806,4.8837 53.6715,3.588 8.9934,-5.1381 14.0264,-8.2566 14.1308,-11.9331 -0.7743,-8.0577 -16.9299,-17.5769 -23.4148,-16.0819 z"
         id="path9102"
         sodipodi:nodetypes="cczcccc"
         inkscape:connector-curvature="0" /><path
         style="fill:none;stroke:#000000;stroke-width:1;stroke-linecap:butt;stroke-linejoin:miter;stroke-miterlimit:4;stroke-opacity:1;stroke-dasharray:none"
         d="m 1090.7276,184.00984 8.0812,27.27415"
         id="path9995"
         inkscape:connector-curvature="0" /><path
         style="fill:none;stroke:#000000;stroke-width:1;stroke-linecap:butt;stroke-linejoin:miter;stroke-miterlimit:4;stroke-opacity:1;stroke-dasharray:none"
         d="m 1084.1616,64.30684 3.0305,11.1116 -5.5559,5.5559 56.0635,102.0254"
         id="path9997"
         inkscape:connector-curvature="0" /><path
         style="fill:none;stroke:#000000;stroke-width:1;stroke-linecap:butt;stroke-linejoin:miter;stroke-miterlimit:4;stroke-opacity:1;stroke-dasharray:none"
         d="m 1137.6997,190.07079 0.5051,28.2842"
         id="path9999"
         inkscape:connector-curvature="0" /><path
         style="fill:none;stroke:#000000;stroke-width:1;stroke-linecap:butt;stroke-linejoin:miter;stroke-miterlimit:4;stroke-opacity:1;stroke-dasharray:none"
         d="m 1407.1579,184.00994 -210.3643,-0.5051"
         id="path10886"
         sodipodi:nodetypes="cc"
         inkscape:connector-curvature="0" /><path
         style="fill:none;stroke:#000000;stroke-width:1;stroke-linecap:butt;stroke-linejoin:miter;stroke-miterlimit:4;stroke-opacity:1;stroke-dasharray:none"
         d="m 1200.8185,187.28799 c -3.818,-10.68805 -73.2503,-4.30075 -103.473,-4.03175 2.5877,0.0629 102.4735,16.89065 103.473,4.03175 z"
         id="path11773"
         sodipodi:nodetypes="ccc"
         inkscape:connector-curvature="0" /><path
         style="fill:none;stroke:#000000;stroke-width:1;stroke-linecap:butt;stroke-linejoin:miter;stroke-miterlimit:4;stroke-opacity:1;stroke-dasharray:none"
         d="m 1599.3393,158.75604 -5.0508,11.1117 13.132,95.71195"
         id="path12660"
         sodipodi:nodetypes="ccc"
         inkscape:connector-curvature="0" /><path
         style="fill:none;stroke:#000000;stroke-width:1;stroke-linecap:butt;stroke-linejoin:miter;stroke-miterlimit:4;stroke-opacity:1;stroke-dasharray:none"
         d="m 1575.6007,160.77634 8.0813,10.1016 13.637,95.96445"
         id="path12662"
         inkscape:connector-curvature="0" /><path
         style="fill:none;stroke:#000000;stroke-width:1;stroke-linecap:butt;stroke-linejoin:miter;stroke-miterlimit:4;stroke-opacity:1;stroke-dasharray:none"
         d="m 1606.4104,261.79159 c 3.0304,0.2526 12.7532,3.283 12.1218,7.0711 -0.6313,3.7881 -4.5457,6.0609 -12.6269,6.0609 -8.0812,0 -17.3123,-0.6932 -19.698,-6.0609 -2.0203,-4.5458 8.2075,-4.0407 10.1016,-6.061"
         id="path12664"
         sodipodi:nodetypes="czzzz"
         inkscape:connector-curvature="0" /><path
         style="fill:none;stroke:#000000;stroke-width:1;stroke-linecap:butt;stroke-linejoin:miter;stroke-miterlimit:4;stroke-opacity:1;stroke-dasharray:none"
         d="m 1748.3368,200.67739 c 1.0102,2.5253 0,23.2335 0,23.2335"
         id="path12666"
         inkscape:connector-curvature="0" /><path
         style="fill:none;stroke:#000000;stroke-width:1;stroke-linecap:butt;stroke-linejoin:miter;stroke-miterlimit:4;stroke-opacity:1;stroke-dasharray:none"
         d="m 1735.2048,192.59609 -2.0203,66.165"
         id="path12668"
         inkscape:connector-curvature="0" /><path
         style="fill:none;stroke:#000000;stroke-width:1;stroke-linecap:butt;stroke-linejoin:miter;stroke-miterlimit:4;stroke-opacity:1;stroke-dasharray:none"
         d="m 1734.4472,211.78899 c -3.0304,0 -78.2868,4.7983 -78.2868,4.7983"
         id="path12670"
         sodipodi:nodetypes="cc"
         inkscape:connector-curvature="0" /><path
         style="fill:none;stroke:#000000;stroke-width:1;stroke-linecap:butt;stroke-linejoin:miter;stroke-miterlimit:4;stroke-opacity:1;stroke-dasharray:none"
         d="m 1656.4129,187.79789 -0.505,53.7906 10.1015,11.6168 -1.0102,26.264"
         id="path12672"
         sodipodi:nodetypes="cccc"
         inkscape:connector-curvature="0" /><path
         style="fill:none;stroke:#000000;stroke-width:1;stroke-linecap:butt;stroke-linejoin:miter;stroke-miterlimit:4;stroke-opacity:1;stroke-dasharray:none"
         d="m 1655.6553,186.28269 c -8.8201,11.5062 -22.1537,22.4467 -52.2754,19.4454 l -8.0812,-36.36545"
         id="path12674"
         sodipodi:nodetypes="ccc"
         inkscape:connector-curvature="0" /><path
         style="fill:none;stroke:#000000;stroke-width:1;stroke-linecap:butt;stroke-linejoin:miter;stroke-miterlimit:4;stroke-opacity:1;stroke-dasharray:none"
         d="m 1617.017,156.98834 c -6.3315,5.8507 -13.2044,7.9111 -20.2031,9.0913"
         id="path12676"
         sodipodi:nodetypes="cc"
         inkscape:connector-curvature="0" /><path
         style="fill:none;stroke:#000000;stroke-width:1;stroke-linecap:butt;stroke-linejoin:miter;stroke-miterlimit:4;stroke-opacity:1;stroke-dasharray:none"
         d="m 1580.6515,166.58474 -130.0571,-5.3033"
         id="path12680"
         sodipodi:nodetypes="cc"
         inkscape:connector-curvature="0" /><path
         style="fill:none;stroke:#000000;stroke-width:1;stroke-linecap:butt;stroke-linejoin:miter;stroke-miterlimit:4;stroke-opacity:1;stroke-dasharray:none"
         d="m 1488.7277,141.33094 c 0,0 2.0115,7.3957 4.7982,8.5863 7.8287,3.3448 98.2373,3.2907 98.2373,0.7576 6.2368,-0.5402 9.0781,-3.005 10.6066,-10.1015"
         id="path12682"
         sodipodi:nodetypes="cscc"
         inkscape:connector-curvature="0" /><path
         style="fill:none;stroke:#000000;stroke-width:1;stroke-linecap:butt;stroke-linejoin:miter;stroke-miterlimit:4;stroke-opacity:1;stroke-dasharray:none"
         d="m 1494.5361,150.16974 -15.6574,12.3744"
         id="path12684"
         sodipodi:nodetypes="cc"
         inkscape:connector-curvature="0" /><path
         style="fill:none;stroke:#000000;stroke-width:1;stroke-linecap:butt;stroke-linejoin:miter;stroke-miterlimit:4;stroke-opacity:1;stroke-dasharray:none"
         d="m 1408.168,184.51499 20.4556,10.1014 c 3.4508,-0.4219 6.1205,-2.3139 8.0812,-5.0507 0,0 12.5007,-18.68785 13.6371,-22.22335 1.2102,-3.7652 0,-7.0711 0,-7.0711"
         id="path12686"
         sodipodi:nodetypes="ccczc"
         inkscape:connector-curvature="0" /><path
         style="fill:none;stroke:#000000;stroke-width:1;stroke-linecap:butt;stroke-linejoin:miter;stroke-miterlimit:4;stroke-opacity:1;stroke-dasharray:none"
         d="m 1504.6376,206.48579 c -5.5558,0 -34.9134,0.5682 -39.6485,0.2525 -4.7585,-0.3173 -22.7528,-7.0411 -23.7386,-9.849 -0.9064,-2.582 11.1117,-23.23345 11.1117,-23.23345 1.2718,-2.8534 3.7731,-4.0674 7.0629,-4.2301 l 45.9701,1.4522 c 3.5352,0.1688 5.5506,0.5946 5.3033,4.7982 l -0.7576,25.00125 c -0.3351,4.3961 -1.4793,5.5484 -5.3033,5.8084 z"
         id="path12688"
         sodipodi:nodetypes="czzcccccc"
         inkscape:connector-curvature="0" /><path
         style="fill:none;stroke:#000000;stroke-width:1;stroke-linecap:butt;stroke-linejoin:miter;stroke-miterlimit:4;stroke-opacity:1;stroke-dasharray:none"
         d="m 1583.682,171.88804 c -2.0203,0 -57.5787,0 -57.5787,0 -2.8274,0.5606 -6.4277,-0.1155 -6.0609,5.5559 0,0 0,20.20295 0,22.22325 0,2.0203 0.5051,8.0812 4.5457,8.0812 4.0406,0 63.387,0.2526 63.387,0.2526"
         id="path12690"
         sodipodi:nodetypes="cccssc"
         inkscape:connector-curvature="0" /><path
         style="fill:none;stroke:#000000;stroke-width:1;stroke-linecap:butt;stroke-linejoin:miter;stroke-miterlimit:4;stroke-opacity:1;stroke-dasharray:none"
         d="m 1532.9218,280.98449 c 1.1786,-2.1886 6.7344,-5.9743 3.7881,-8.0812 -2.9463,-2.1069 -17.7868,-2.9573 -21.4657,0.5051 -3.6618,3.4462 0.1786,4.01497 -1.5892,6.37197"
         id="path12696"
         sodipodi:nodetypes="czzc"
         inkscape:connector-curvature="0" /><path
         style="fill:none;stroke:#000000;stroke-width:1;stroke-linecap:butt;stroke-linejoin:miter;stroke-miterlimit:4;stroke-opacity:1;stroke-dasharray:none"
         d="m 1599.0868,159.26114 c -6.9721,-0.1881 -13.5745,-0.8691 -22.4759,1.5152"
         id="path13585"
         sodipodi:nodetypes="cc"
         inkscape:connector-curvature="0" /></g></g></g><text
   xml:space="preserve"
   style="font-size:26.19924545px;font-style:italic;font-variant:normal;font-weight:normal;font-stretch:normal;text-indent:0;text-align:start;text-decoration:none;line-height:125%;letter-spacing:0px;word-spacing:0px;text-transform:none;direction:ltr;block-progression:tb;writing-mode:lr-tb;text-anchor:start;color:#000000;fill:#000000;fill-opacity:1;fill-rule:nonzero;stroke:none;stroke-width:1px;marker:none;visibility:visible;display:inline;overflow:visible;enable-background:accumulate;font-family:Nimbus Roman No9 L;-inkscape-font-specification:Nimbus Roman No9 L Italic"
   x="108.88636"
   y="-1412.8533"
   id="text5389"
   sodipodi:linespacing="125%"
   transform="scale(1,-1)"
   inkscape:export-filename="/home/olivier/aero/documents/cc/figures/flight_mechanics/path5631.png"
   inkscape:export-xdpi="113.61"
   inkscape:export-ydpi="113.61"><tspan
     sodipodi:role="line"
     id="tspan5391"
     x="108.88636"
     y="-1412.8533">pitch-down disturbance</tspan></text>


<text
   xml:space="preserve"
   style="font-size:26.19924545px;font-style:italic;font-variant:normal;font-weight:normal;font-stretch:normal;text-indent:0;text-align:start;text-decoration:none;line-height:125%;letter-spacing:0px;word-spacing:0px;text-transform:none;direction:ltr;block-progression:tb;writing-mode:lr-tb;text-anchor:start;color:#000000;fill:#000000;fill-opacity:1;fill-rule:nonzero;stroke:none;stroke-width:1px;marker:none;visibility:visible;display:inline;overflow:visible;enable-background:accumulate;font-family:Nimbus Roman No9 L;-inkscape-font-specification:Nimbus Roman No9 L Italic"
   x="577.25745"
   y="-1190.9244"
   id="text5389-6"
   sodipodi:linespacing="125%"
   transform="scale(1,-1)"
   inkscape:export-filename="/home/olivier/aero/documents/cc/figures/flight_mechanics/path5631.png"
   inkscape:export-xdpi="113.61"
   inkscape:export-ydpi="113.61"><tspan
     sodipodi:role="line"
     id="tspan5391-6"
     x="577.25745"
     y="-1190.9244">statically stable</tspan></text>


<text
   transform="scale(1,-1)"
   sodipodi:linespacing="125%"
   id="text5435"
   y="-1071.6372"
   x="563.29285"
   style="font-size:26.19924545px;font-style:italic;font-variant:normal;font-weight:normal;font-stretch:normal;text-indent:0;text-align:start;text-decoration:none;line-height:125%;letter-spacing:0px;word-spacing:0px;text-transform:none;direction:ltr;block-progression:tb;writing-mode:lr-tb;text-anchor:start;color:#000000;fill:#000000;fill-opacity:1;fill-rule:nonzero;stroke:none;stroke-width:1px;marker:none;visibility:visible;display:inline;overflow:visible;enable-background:accumulate;font-family:Nimbus Roman No9 L;-inkscape-font-specification:Nimbus Roman No9 L Italic"
   xml:space="preserve"
   inkscape:export-filename="/home/olivier/aero/documents/cc/figures/flight_mechanics/path5631.png"
   inkscape:export-xdpi="113.61"
   inkscape:export-ydpi="113.61"><tspan
     y="-1071.6372"
     x="563.29285"
     id="tspan5437"
     sodipodi:role="line">statically neutral</tspan></text>


<text
   xml:space="preserve"
   style="font-size:26.19924545px;font-style:italic;font-variant:normal;font-weight:normal;font-stretch:normal;text-indent:0;text-align:start;text-decoration:none;line-height:125%;letter-spacing:0px;word-spacing:0px;text-transform:none;direction:ltr;block-progression:tb;writing-mode:lr-tb;text-anchor:start;color:#000000;fill:#000000;fill-opacity:1;fill-rule:nonzero;stroke:none;stroke-width:1px;marker:none;visibility:visible;display:inline;overflow:visible;enable-background:accumulate;font-family:Nimbus Roman No9 L;-inkscape-font-specification:Nimbus Roman No9 L Italic"
   x="551.05823"
   y="-952.3501"
   id="text5439"
   sodipodi:linespacing="125%"
   transform="scale(1,-1)"
   inkscape:export-filename="/home/olivier/aero/documents/cc/figures/flight_mechanics/path5631.png"
   inkscape:export-xdpi="113.61"
   inkscape:export-ydpi="113.61"><tspan
     sodipodi:role="line"
     id="tspan5441"
     x="551.05823"
     y="-952.3501">statically unstable</tspan></text>


<path
   sodipodi:type="arc"
   style="fill:none;stroke:#ae1d61;stroke-width:2;stroke-linecap:round;stroke-linejoin:round;stroke-miterlimit:4;stroke-opacity:1;stroke-dasharray:none;stroke-dashoffset:0;marker-end:url(#Arrow2Mend-7)"
   id="path5631"
   sodipodi:cx="524.72705"
   sodipodi:cy="108.63243"
   sodipodi:rx="27.317677"
   sodipodi:ry="27.317677"
   d="m 511.91183,84.507227 c 13.32398,-7.077653 29.86277,-2.014003 36.94042,11.309979 7.07766,13.323984 2.01401,29.862774 -11.30997,36.940424 -13.32399,7.07766 -29.86278,2.01401 -36.94043,-11.30997 -0.96856,-1.82335 -1.72728,-3.75062 -2.26165,-5.74489"
   transform="matrix(0.8,0,0,-0.8,-345.70262,1507.0613)"
   sodipodi:start="4.2240967"
   sodipodi:end="9.1629786"
   sodipodi:open="true"
   inkscape:export-xdpi="113.61"
   inkscape:export-ydpi="113.61" />


</g></svg>